<?xml version="1.0" standalone="no"?><!DOCTYPE svg PUBLIC "-//W3C//DTD SVG 1.1//EN" "http://www.w3.org/Graphics/SVG/1.1/DTD/svg11.dtd"><svg class="icon" width="200px" height="200.00px" viewBox="0 0 1024 1024" version="1.1" xmlns="http://www.w3.org/2000/svg"><path fill="#515151" d="M886.402155 112.277156 167.779238 112.277156c-48.057529 0-87.397512 39.115879-87.397512 87.396489l0 477.667054c0 48.057529 39.115879 87.396489 87.397512 87.396489l285.437961 0 0 72.421426L264.116353 837.158614c-11.175527 0-20.117177 8.940626-20.117177 20.117177s8.94165 20.117177 20.117177 20.117177l524.830213 0c11.17655 0 20.117177-8.940626 20.117177-20.117177s-8.940626-20.117177-20.117177-20.117177l-183.734628 0 0-72.421426 281.190217 0c48.28061 0 87.397512-39.339983 87.397512-87.396489L973.799668 199.673645C973.799668 151.616116 934.683788 112.277156 886.402155 112.277156zM564.977585 837.159638l-71.527057 0 0-72.421426 71.527057 0L564.977585 837.159638zM933.565315 677.341722c0 25.928532-21.234627 47.163159-47.163159 47.163159L167.779238 724.504882c-25.928532 0-47.163159-21.234627-47.163159-47.163159l0-5.588275 812.95026 0L933.565315 677.341722 933.565315 677.341722zM933.565315 631.519094 120.615055 631.519094l0-431.845449c0-25.928532 21.234627-47.163159 47.163159-47.163159l718.623941 0c25.928532 0 47.163159 21.234627 47.163159 47.163159L933.565315 631.519094zM527.09172 231.552703c-85.783759 0-155.970284 71.990614-155.970284 159.979598 0 87.98796 70.186526 159.978575 155.970284 159.978575s155.969261-71.990614 155.969261-159.978575C683.060981 303.543318 612.874455 231.552703 527.09172 231.552703zM527.09172 279.545764c26.514887 0 46.790676 20.796652 46.790676 47.994084s-20.276812 47.994084-46.790676 47.994084c-26.514887 0-46.791699-20.797675-46.791699-47.994084S500.57581 279.545764 527.09172 279.545764zM411.203316 413.249929c-1.243317-7.099698-1.87879-14.361079-1.87879-21.717627 0-32.532951 12.418844-63.188134 34.967396-86.315878 0.25685-0.264013 0.51677-0.528026 0.775666-0.788969-1.940189 7.331989-2.971681 15.07637-2.971681 23.112394 0 20.364817 6.625908 38.870286 17.86181 53.468772-2.197038 0.844228-4.358261 1.723248-6.470365 2.632967C433.288311 392.34276 419.945421 402.760017 411.203316 413.249929zM527.09172 506.71667c-38.993083 0-73.306586-20.797675-93.583398-51.192939 0-31.995715 62.388932-49.593512 93.583398-49.593512s93.582375 17.597797 93.582375 49.593512C600.396259 485.918995 566.083779 506.71667 527.09172 506.71667zM642.978077 413.249929c-8.742105-10.489912-22.084994-20.907169-42.283012-29.608342-2.112104-0.909719-4.273327-1.788739-6.470365-2.632967 11.234879-14.598486 17.86181-33.102932 17.86181-53.468772 0-8.036024-1.031493-15.781428-2.971681-23.112394 0.258896 0.260943 0.517793 0.523933 0.775666 0.787946 22.548552 23.128767 34.966373 53.782927 34.966373 86.315878C644.856867 398.888849 644.221394 406.15023 642.978077 413.249929z" /></svg>