<?xml version="1.0" standalone="no"?><!DOCTYPE svg PUBLIC "-//W3C//DTD SVG 1.1//EN" "http://www.w3.org/Graphics/SVG/1.1/DTD/svg11.dtd"><svg t="1499766953003" class="icon" style="" viewBox="0 0 1024 1024" version="1.1" xmlns="http://www.w3.org/2000/svg" p-id="4590" xmlns:xlink="http://www.w3.org/1999/xlink" width="200" height="200"><defs><style type="text/css"></style></defs><path d="M513.133823 62.638619c-247.526513 0-448.185602 200.659089-448.185602 448.185602s200.659089 448.185602 448.185602 448.185602 448.185602-200.659089 448.185602-448.185602S760.659313 62.638619 513.133823 62.638619zM309.87349 717.38881c0 24.237007-11.206226 36.354999-33.600259 36.354999l-23.134907 0L253.138324 278.371008l56.736189 0L309.874513 717.38881zM438.770162 432.605765l-25.889647 0 0 338.213955-79.871095 0L333.00942 250.828722l79.871095 0 0 104.659665 25.889647 0L438.770162 432.605765zM773.129322 571.417251 627.155716 571.417251l-7.710612 27.541263 73.812099 0 79.872119 171.861206-89.23537 0-73.814146-153.684218-18.178011 38.559201c-36.725436 62.425771-85.018326 100.803847-144.869459 115.125017l0.550539-91.990111c42.965557-26.070772 69.76697-61.875233 80.421634-107.413382L452.540793 571.416228l0-71.608921 87.032192 0L539.572986 396.249743c0-20.561291-9.184173-30.847565-27.541263-30.847565l-44.61922 0L467.412502 293.794279l72.160483 0 0-42.965557 90.88801 0 0 42.965557 58.94039 0c42.595121 0 64.076364 21.852704 64.446801 65.549925l0 140.463102 19.281135 0L773.129322 571.417251z" p-id="4591" fill="#1296db"></path><path d="M676.181293 402.309762c0-24.598234-9.363252-36.906561-28.092825-36.906561l-17.626449 0 0 134.404106 45.719274 0L676.181293 402.309762z" p-id="4592" fill="#1296db"></path></svg>