<?xml version="1.0" standalone="no"?><!DOCTYPE svg PUBLIC "-//W3C//DTD SVG 1.1//EN" "http://www.w3.org/Graphics/SVG/1.1/DTD/svg11.dtd"><svg class="icon" width="48px" height="48.00px" viewBox="0 0 1024 1024" version="1.1" xmlns="http://www.w3.org/2000/svg"><path d="M512 76.893274c-166.310793 0-301.120129 131.966591-301.120129 294.746978 0 162.794713 201.146183 378.601804 301.120129 575.46545 104.244202-196.863646 301.120129-412.671761 301.120129-575.46545C813.120129 208.859865 678.30977 76.893274 512 76.893274zM512 539.77253c-93.547583 0-169.382758-74.593905-169.382758-166.639275 0-92.021833 75.835176-166.637228 169.382758-166.637228 93.545536 0 169.382758 74.615395 169.382758 166.637228C681.382758 465.177602 605.545536 539.77253 512 539.77253zM512 299.084773c-41.588187 0-75.290777 33.157167-75.290777 74.048483 0 40.913828 33.70259 74.070996 75.290777 74.070996 41.566698 0 75.270311-33.157167 75.270311-74.070996C587.270311 332.242963 553.567721 299.084773 512 299.084773z" fill="#ffffff" /></svg>