<?xml version="1.0" standalone="no"?><!DOCTYPE svg PUBLIC "-//W3C//DTD SVG 1.1//EN" "http://www.w3.org/Graphics/SVG/1.1/DTD/svg11.dtd"><svg class="icon" width="200px" height="200.00px" viewBox="0 0 1024 1024" version="1.1" xmlns="http://www.w3.org/2000/svg"><path fill="#33A3F4" d="M810.504 600.903V181.869c0-35.595-28.866-64.462-64.47-64.462H133.607c-35.603 0-64.469 28.867-64.469 64.462v419.034c0 35.598 28.866 64.459 64.47 64.459h64.46v161.175L359.24 665.362h386.795c35.603 0 64.469-28.861 64.469-64.46z m-531.851-161.17c-26.72 0-48.351-21.654-48.351-48.338 0-26.702 21.631-48.352 48.35-48.352 26.726 0 48.348 21.654 48.348 48.352 0 26.684-21.622 48.338-48.347 48.338z m161.161 0c-26.72 0-48.344-21.654-48.344-48.338 0-26.702 21.624-48.352 48.344-48.352 26.724 0 48.357 21.654 48.357 48.352-0.001 26.684-21.633 48.338-48.357 48.338z m161.174 0c-26.72 0-48.357-21.654-48.357-48.338 0-26.702 21.638-48.352 48.357-48.352s48.347 21.654 48.347 48.352c0 26.684-21.627 48.338-48.347 48.338z"  /><path fill="#33A3F4" d="M907.195 214.1h-64.46v64.46h64.47v419.033h-128.94v70.01l-70.002-70.01H391.47v64.483h290.095l161.17 161.15v-161.15h64.46c35.607 0 64.47-28.867 64.47-64.483V278.559c0-35.593-28.863-64.46-64.47-64.46z"  /></svg>