<?xml version="1.0" standalone="no"?><!DOCTYPE svg PUBLIC "-//W3C//DTD SVG 1.1//EN" "http://www.w3.org/Graphics/SVG/1.1/DTD/svg11.dtd"><svg class="icon" width="200px" height="200.00px" viewBox="0 0 1024 1024" version="1.1" xmlns="http://www.w3.org/2000/svg"><path fill="#33A3F4" d="M860.159468 898.741181 162.866345 898.741181c-22.004153 0-39.845497-17.838274-39.845497-39.845497L123.020848 161.602561c0-22.0062 17.84032-39.845497 39.845497-39.845497l597.680405 0 39.845497 0 59.768245 0c22.0062 0 39.845497 17.838274 39.845497 39.845497l0 697.293123C900.004965 880.902908 882.166691 898.741181 860.159468 898.741181zM760.546749 181.52531 182.789093 181.52531l0 657.447627 577.757656 0L760.546749 181.52531zM840.23672 181.52531l-39.845497 0 0 657.447627 39.845497 0L840.23672 181.52531zM403.470191 536.098861c-36.988426-25.078165-61.300135-67.448158-61.300135-115.501594 0-77.023234 62.438051-139.462309 139.460262-139.462309 77.019141 0 139.456169 62.440098 139.456169 139.462309 0 48.091298-24.347524 90.493014-61.384046 115.562992 71.16583 30.379914 121.06224 100.946087 121.137964 183.200462 0 0.023536 0.014326 0.044002 0.014326 0.069585 0 11.104919-8.90788 20.107967-19.895119 20.107967-10.989285 0-19.897166-9.003048-19.897166-20.107967 0-0.071631 0.037862-0.12996 0.039909-0.199545-0.033769-87.966471-71.357188-159.273517-159.331845-159.273517-87.998193 0-159.333892 71.340815-159.333892 159.337985 0 0.048095 0.00614 0.093121 0.00614 0.141216l-0.336668 0c-0.00614 11.102872-8.865925 20.101827-19.796882 20.101827-10.934027 0-19.792788-8.998955-19.796882-20.101827l-0.317225 0C282.241152 637.097136 332.211241 566.455239 403.470191 536.098861zM481.631342 520.135284c55.101969 0 99.772354-44.562938 99.772354-99.54211 0-54.970986-44.670385-99.538017-99.772354-99.538017-55.104015 0-99.774401 44.567032-99.774401 99.538017C381.856941 475.572346 426.527326 520.135284 481.631342 520.135284z" /></svg>