<?xml version="1.0" standalone="no"?><!DOCTYPE svg PUBLIC "-//W3C//DTD SVG 1.1//EN" "http://www.w3.org/Graphics/SVG/1.1/DTD/svg11.dtd"><svg t="1499739859362" class="icon" style="" viewBox="0 0 1024 1024" version="1.1" xmlns="http://www.w3.org/2000/svg" p-id="2412" id="mx_n_1499739859363" xmlns:xlink="http://www.w3.org/1999/xlink" width="200" height="200"><defs><style type="text/css"></style></defs><path d="M127.941927 127.981836l223.862557 0L351.804485 64.021106 95.961562 64.021106c-17.662265 0-31.980365 14.3181-31.980365 31.980365l0 255.842922 63.960731 0L127.941927 127.981836z" p-id="2413"></path><path d="M927.450037 64.021106 671.607114 64.021106l0 63.960731 223.862557 0 0 223.862557 63.960731 0L959.430402 96.001471C959.430402 78.339206 945.112302 64.021106 927.450037 64.021106z" p-id="2414"></path><path d="M127.941927 671.647023 63.981197 671.647023l0 255.842922c0 17.662265 14.3181 31.980365 31.980365 31.980365l255.842922 0 0-63.960731L127.941927 895.509581 127.941927 671.647023z" p-id="2415"></path><path d="M895.469672 895.509581 671.607114 895.509581l0 63.960731 255.842922 0c17.662265 0 31.980365-14.3181 31.980365-31.980365L959.430402 671.647023l-63.960731 0L895.469672 895.509581z" p-id="2416"></path><path d="M63.981197 480.019635l895.449205 0 0 63.960731-895.449205 0 0-63.960731Z" p-id="2417"></path></svg>